<?xml version="1.0" encoding="utf-8"?>
<!-- Svg Vector Icons : http://www.onlinewebfonts.com/icon -->
<!DOCTYPE svg PUBLIC "-//W3C//DTD SVG 1.1//EN" "http://www.w3.org/Graphics/SVG/1.1/DTD/svg11.dtd">
<svg version="1.1" xmlns="http://www.w3.org/2000/svg" xmlns:xlink="http://www.w3.org/1999/xlink" x="0px" y="0px" viewBox="0 0 1000 1000" enable-background="new 0 0 1000 1000" xml:space="preserve">
<metadata> Svg Vector Icons : http://www.onlinewebfonts.com/icon </metadata>
<g><path d="M476.8,302.8V61.6c0.1-28.4-23-51.5-51.5-51.5c-14.3,0-27.2,5.7-36.6,15.1c-9.3,9.3-15.1,22.2-15,36.5l-0.2,210.1c0,8.5-3.5,16.2-9.1,21.8c-5.6,5.6-13.3,9.1-21.8,9.1c-17.2,0.1-31-13.7-30.9-30.9l-0.1-210.2c0.1-28.4-23-51.5-51.5-51.5c-14.3,0-27.2,5.8-36.5,15.1c-9.3,9.3-15.1,22.2-15,36.4l-0.1,210.2c0.1,8.6-3.4,16.3-9,21.9c-5.6,5.6-13.3,9-21.9,9c-17,0-30.9-13.9-30.9-30.9l-0.1-210.2C146.7,33.1,123.6,10,95,10c-14.3,0-27.2,5.8-36.5,15.1c-9.3,9.3-15.1,22.2-15,36.4l0,241.2c0,85.5,95.8,131.1,135.7,199.4v299.7l-0.1,107c0,44.7,36.4,81.1,81.1,81.1c22.4,0,42.6-9.1,57.3-23.8c14.7-14.7,23.7-34.9,23.7-57.2L341,802.7V503.4C380.7,433.7,476.8,388.2,476.8,302.8z"/><path d="M956.5,255c0-135.3-94-245-210-245s-210,109.7-210,245c0,104.8,56.4,194.2,135.7,229.2v317.7l-0.1,107c0,44.7,36.4,81.1,81.1,81.1c22.4,0,42.6-9.1,57.3-23.8c14.7-14.7,23.7-34.9,23.7-57.2l-0.1-106.3V477.8C906.3,439,956.5,353.9,956.5,255z"/></g>
</svg>